<svg width="26" height="26" viewBox="0 0 26 26" fill="none" xmlns="http://www.w3.org/2000/svg">
<path d="M20.5833 3.25H5.41667C4.225 3.25 3.25 4.225 3.25 5.41667V13C3.25 14.1917 4.225 15.1667 5.41667 15.1667H20.5833C21.775 15.1667 22.75 14.1917 22.75 13V5.41667C22.75 4.225 21.775 3.25 20.5833 3.25ZM20.5833 9.75H16.25C16.25 11.505 14.755 13 13 13C11.245 13 9.75 11.505 9.75 9.75H5.41667V5.41667H20.5833V9.75ZM16.25 17.3333H22.75V20.5833C22.75 21.775 21.775 22.75 20.5833 22.75H5.41667C4.225 22.75 3.25 21.775 3.25 20.5833V17.3333H9.75C9.75 19.1317 11.2017 20.5833 13 20.5833C14.7983 20.5833 16.25 19.1317 16.25 17.3333Z" fill="#84849D"/>
</svg>
