<svg width="20" height="21" viewBox="0 0 20 21" fill="none" xmlns="http://www.w3.org/2000/svg">
<g id="Close">
<path id="Vector" d="M11.1751 10.5L16.4251 5.25833C16.582 5.10141 16.6702 4.88858 16.6702 4.66667C16.6702 4.44475 16.582 4.23192 16.4251 4.075C16.2682 3.91808 16.0554 3.82992 15.8334 3.82992C15.6115 3.82992 15.3987 3.91808 15.2418 4.075L10.0001 9.325L4.75845 4.075C4.60153 3.91808 4.3887 3.82992 4.16678 3.82992C3.94486 3.82992 3.73203 3.91808 3.57511 4.075C3.41819 4.23192 3.33004 4.44475 3.33004 4.66667C3.33004 4.88858 3.41819 5.10141 3.57511 5.25833L8.82511 10.5L3.57511 15.7417C3.497 15.8191 3.43501 15.9113 3.3927 16.0129C3.3504 16.1144 3.32861 16.2233 3.32861 16.3333C3.32861 16.4433 3.3504 16.5523 3.3927 16.6538C3.43501 16.7554 3.497 16.8475 3.57511 16.925C3.65258 17.0031 3.74475 17.0651 3.8463 17.1074C3.94785 17.1497 4.05677 17.1715 4.16678 17.1715C4.27679 17.1715 4.38571 17.1497 4.48726 17.1074C4.58881 17.0651 4.68098 17.0031 4.75845 16.925L10.0001 11.675L15.2418 16.925C15.3192 17.0031 15.4114 17.0651 15.513 17.1074C15.6145 17.1497 15.7234 17.1715 15.8334 17.1715C15.9435 17.1715 16.0524 17.1497 16.1539 17.1074C16.2555 17.0651 16.3476 17.0031 16.4251 16.925C16.5032 16.8475 16.5652 16.7554 16.6075 16.6538C16.6498 16.5523 16.6716 16.4433 16.6716 16.3333C16.6716 16.2233 16.6498 16.1144 16.6075 16.0129C16.5652 15.9113 16.5032 15.8191 16.4251 15.7417L11.1751 10.5Z" fill="#8E8E91"/>
</g>
</svg>
