<svg width="21" height="22" viewBox="0 0 21 22" fill="none" xmlns="http://www.w3.org/2000/svg">
<g clip-path="url(#clip0_120_368)">
<path d="M10.616 10.4109L10.6202 5.15073C10.6202 4.99338 10.5577 4.84247 10.4464 4.73121C10.3352 4.61995 10.1843 4.55744 10.0269 4.55744C9.86958 4.55744 9.71868 4.61995 9.60741 4.73121C9.49615 4.84247 9.43364 4.99338 9.43364 5.15073L9.43782 10.4109L4.17764 10.4067C4.02029 10.4067 3.86938 10.4692 3.75812 10.5805C3.64686 10.6918 3.58435 10.8427 3.58435 11C3.58435 11.1574 3.64686 11.3083 3.75812 11.4195C3.86938 11.5308 4.02029 11.5933 4.17764 11.5933L9.43782 11.5891L9.43364 16.8493C9.43332 16.9273 9.44845 17.0046 9.47815 17.0767C9.50786 17.1489 9.55154 17.2144 9.6067 17.2695C9.66185 17.3247 9.72739 17.3684 9.79951 17.3981C9.87164 17.4278 9.94893 17.4429 10.0269 17.4426C10.1049 17.4429 10.1822 17.4278 10.2543 17.3981C10.3265 17.3684 10.392 17.3247 10.4472 17.2695C10.5023 17.2144 10.546 17.1489 10.5757 17.0767C10.6054 17.0046 10.6205 16.9273 10.6202 16.8493L10.616 11.5891L15.8762 11.5933C15.9542 11.5936 16.0315 11.5785 16.1036 11.5488C16.1758 11.5191 16.2413 11.4754 16.2965 11.4202C16.3516 11.3651 16.3953 11.2996 16.425 11.2274C16.4547 11.1553 16.4698 11.078 16.4695 11C16.4698 10.922 16.4547 10.8447 16.425 10.7726C16.3953 10.7005 16.3516 10.6349 16.2965 10.5798C16.2413 10.5246 16.1758 10.4809 16.1036 10.4512C16.0315 10.4215 15.9542 10.4064 15.8762 10.4067L10.616 10.4109Z" fill="white"/>
</g>
<defs>
<clipPath id="clip0_120_368">
<rect width="14.1808" height="14.1808" fill="white" transform="translate(0 11) rotate(-45)"/>
</clipPath>
</defs>
</svg>
