<svg width="24" height="24" viewBox="0 0 24 24" fill="none" xmlns="http://www.w3.org/2000/svg">
<path d="M4 20L9 15M14 17C12.6155 17 11.2622 16.5895 10.111 15.8203C8.95986 15.0511 8.06265 13.9579 7.53284 12.6788C7.00303 11.3997 6.8644 9.99224 7.1345 8.63437C7.4046 7.2765 8.07128 6.02922 9.05025 5.05025C10.0292 4.07129 11.2765 3.4046 12.6344 3.1345C13.9922 2.86441 15.3997 3.00303 16.6788 3.53284C17.9579 4.06266 19.0511 4.95986 19.8203 6.11101C20.5895 7.26215 21 8.61553 21 10C21 11.8565 20.2625 13.637 18.9497 14.9497C17.637 16.2625 15.8565 17 14 17Z" stroke="#818181" stroke-opacity="0.75" stroke-linecap="round" stroke-linejoin="round"/>
<path d="M3.5 20.5L7 17" stroke="#818181" stroke-opacity="0.75" stroke-linecap="round" stroke-linejoin="round"/>
</svg>
