<svg width="21" height="21" viewBox="0 0 21 21" fill="none" xmlns="http://www.w3.org/2000/svg">
<path d="M17.7758 7.8758L19.6758 9.7758C19.7695 9.86876 19.8439 9.97936 19.8947 10.1012C19.9455 10.2231 19.9716 10.3538 19.9716 10.4858C19.9716 10.6178 19.9455 10.7485 19.8947 10.8704C19.8439 10.9922 19.7695 11.1028 19.6758 11.1958L17.7758 13.0958C17.5911 13.2821 17.4869 13.5335 17.4858 13.7958V16.4858C17.4858 16.751 17.3804 17.0054 17.1929 17.1929C17.0054 17.3804 16.751 17.4858 16.4858 17.4858H13.7958C13.5335 17.4869 13.2821 17.5911 13.0958 17.7758L11.1958 19.6758C11.1028 19.7695 10.9922 19.8439 10.8704 19.8947C10.7485 19.9455 10.6178 19.9716 10.4858 19.9716C10.3538 19.9716 10.2231 19.9455 10.1012 19.8947C9.97936 19.8439 9.86876 19.7695 9.7758 19.6758L7.8758 17.7758C7.68954 17.5911 7.43814 17.4869 7.1758 17.4858H4.4858C4.22058 17.4858 3.96623 17.3804 3.77869 17.1929C3.59116 17.0054 3.4858 16.751 3.4858 16.4858V13.7958C3.48469 13.5335 3.38054 13.2821 3.1958 13.0958L1.2958 11.1958C1.20207 11.1028 1.12768 10.9922 1.07691 10.8704C1.02614 10.7485 1 10.6178 1 10.4858C1 10.3538 1.02614 10.2231 1.07691 10.1012C1.12768 9.97936 1.20207 9.86876 1.2958 9.7758L3.1958 7.8758C3.38054 7.68954 3.48469 7.43814 3.4858 7.1758V4.4858C3.4858 4.22058 3.59116 3.96623 3.77869 3.77869C3.96623 3.59116 4.22058 3.4858 4.4858 3.4858H7.1758C7.43814 3.48469 7.68954 3.38054 7.8758 3.1958L9.7758 1.2958C9.86876 1.20207 9.97936 1.12768 10.1012 1.07691C10.2231 1.02614 10.3538 1 10.4858 1C10.6178 1 10.7485 1.02614 10.8704 1.07691C10.9922 1.12768 11.1028 1.20207 11.1958 1.2958L13.0958 3.1958C13.2821 3.38054 13.5335 3.48469 13.7958 3.4858H16.4858C16.751 3.4858 17.0054 3.59116 17.1929 3.77869C17.3804 3.96623 17.4858 4.22058 17.4858 4.4858V7.1758C17.4869 7.43814 17.5911 7.68954 17.7758 7.8758ZM10.4858 7.4858C9.89245 7.4858 9.31243 7.66175 8.81909 7.99139C8.32574 8.32103 7.94122 8.78957 7.71416 9.33775C7.4871 9.88593 7.42769 10.4891 7.54344 11.0711C7.6592 11.653 7.94492 12.1876 8.36448 12.6071C8.78404 13.0267 9.31858 13.3124 9.90053 13.4282C10.4825 13.5439 11.0857 13.4845 11.6338 13.2574C12.182 13.0304 12.6506 12.6459 12.9802 12.1525C13.3099 11.6592 13.4858 11.0791 13.4858 10.4858C13.4858 9.69015 13.1697 8.92709 12.6071 8.36448C12.0445 7.80187 11.2814 7.4858 10.4858 7.4858Z" stroke="#84849C" stroke-width="2" stroke-linecap="round" stroke-linejoin="round"/>
</svg>
